<svg width="52" height="63" viewBox="0 0 52 63" fill="none" xmlns="http://www.w3.org/2000/svg">
<path d="M11.4002 11.2002V17.2002H18.8002V21.1002H11.4002V44.8002H7.2002V7.2002H18.7002V11.2002H11.4002Z" fill="#4E2DEB"/>
<path d="M14.1001 44.7004V23.4004H18.4001V40.8004H23.6001V44.8004H14.1001V44.7004Z" fill="#4E2DEB"/>
<path d="M26.5999 38.9996C23.5999 38.9996 21.3999 37.4996 21.3999 34.0996C21.3999 33.8996 21.3999 7.19961 21.3999 7.19961H25.5999C25.5999 7.19961 25.5999 33.3996 25.5999 33.9996C25.5999 34.9996 25.8999 35.2996 26.4999 35.2996C27.0999 35.2996 27.2999 34.9996 27.2999 33.9996C27.2999 33.3996 27.2999 7.09961 27.2999 7.09961H31.4999C31.4999 7.09961 31.4999 33.7996 31.4999 33.9996C31.4999 37.1996 29.6999 38.9996 26.5999 38.9996Z" fill="#4E2DEB"/>
<path d="M37.3999 44.7996H32.8999L36.5999 31.9996L33.2999 20.5996H37.6999L39.0999 26.7996L40.4999 20.5996H44.6999L41.1999 32.9996L44.5999 44.7996H40.1999L38.7999 38.2996L37.3999 44.7996Z" fill="#4E2DEB"/>
<path d="M44.8002 7.2002H33.2002V11.2002H44.7002V7.2002H44.8002Z" fill="#4E2DEB"/>
<path d="M31.2002 40.7002H25.7002V44.7002H31.2002V40.7002Z" fill="#4E2DEB"/>
<path d="M44.8002 13.9004H33.2002V17.9004H44.7002V13.9004H44.8002Z" fill="#4E2DEB"/>
<path d="M52 52H0V0H52V52ZM4.2 47.8H47.8V4.2H4.2V47.8Z" fill="#4E2DEB"/>
<path d="M4.7 61.0996H2L1.6 61.9996H0L2.2 56.0996H4.4L6.7 61.9996H5L4.7 61.0996ZM4.3 59.9996L3.5 57.6996H3.2L2.4 59.9996H4.3Z" fill="#4E2DEB"/>
<path d="M7.5 59.1C7.5 57.2 8.8 56 10.7 56C12 56 13.4 56.6 13.7 58.4H12.2C12 57.7 11.4 57.4 10.7 57.4C9.8 57.4 9 58.1 9 59.2C9 60.3 9.7 61 10.7 61C11.4 61 11.9 60.7 12.2 59.9H13.7C13.4 61.7 12.1 62.3 10.7 62.3C8.9 62.2 7.5 61 7.5 59.1Z" fill="#4E2DEB"/>
<path d="M19.4998 61.0996H16.6998L16.3998 61.9996H14.7998L16.9998 56.0996H19.1998L21.3998 61.9996H19.7998L19.4998 61.0996ZM19.0998 59.9996L18.2998 57.6996H17.9998L17.0998 59.9996H19.0998Z" fill="#4E2DEB"/>
<path d="M28.8999 59.0996C28.8999 60.7996 27.9999 61.9996 25.6999 61.9996H22.8999V56.0996H25.6999C27.9999 56.1996 28.8999 57.3996 28.8999 59.0996ZM27.2999 59.0996C27.2999 57.9996 26.6999 57.4996 25.6999 57.4996H24.4999V60.6996H25.6999C26.6999 60.6996 27.2999 60.1996 27.2999 59.0996Z" fill="#4E2DEB"/>
<path d="M30.5 56.2002H35.5V57.5002H32V58.6002H35.3V59.7002H32V60.8002H35.5V62.0002H30.5V56.2002Z" fill="#4E2DEB"/>
<path d="M37.2998 56.2002H39.2998L40.5998 60.0002H40.6998L41.9998 56.2002H43.9998V62.0002H42.4998V58.8002H42.3998L41.2998 62.0002H40.0998L38.9998 58.8002H38.8998V62.0002H37.3998V56.2002H37.2998Z" fill="#4E2DEB"/>
<path d="M49.5 60.1996V61.9996H47.9V60.0996L45.5 56.0996H47.2L48.7 58.5996H48.8L50.3 56.0996H52L49.5 60.1996Z" fill="#4E2DEB"/>
</svg>
